<?xml version="1.0" encoding="UTF-8" standalone="no"?>
<!DOCTYPE svg PUBLIC "-//W3C//DTD SVG 1.1//EN"
 "http://www.w3.org/Graphics/SVG/1.1/DTD/svg11.dtd">
<!-- Generated by graphviz version 2.40.1 (20161225.0304)
 -->
<!-- Title: G Pages: 1 -->
<svg width="348pt" height="412pt"
 viewBox="0.00 0.00 348.49 412.00" xmlns="http://www.w3.org/2000/svg" xmlns:xlink="http://www.w3.org/1999/xlink">
<g id="graph0" class="graph" transform="scale(1 1) rotate(0) translate(4 408)">
<title>G</title>
<polygon fill="#ffffff" stroke="transparent" points="-4,4 -4,-408 344.4913,-408 344.4913,4 -4,4"/>
<g id="clust1" class="cluster">
<title>cluster_Global</title>
<path fill="none" stroke="#c0c0c0" d="M149.4913,-8C149.4913,-8 320.4913,-8 320.4913,-8 326.4913,-8 332.4913,-14 332.4913,-20 332.4913,-20 332.4913,-384 332.4913,-384 332.4913,-390 326.4913,-396 320.4913,-396 320.4913,-396 149.4913,-396 149.4913,-396 143.4913,-396 137.4913,-390 137.4913,-384 137.4913,-384 137.4913,-20 137.4913,-20 137.4913,-14 143.4913,-8 149.4913,-8"/>
<text text-anchor="middle" x="234.9913" y="-383.2" font-family="Times,serif" font-size="11.00" fill="#c0c0c0">Global</text>
</g>
<g id="clust2" class="cluster">
<title>cluster_\PaladinsDev</title>
<path fill="none" stroke="#c0c0c0" d="M157.4913,-16C157.4913,-16 312.4913,-16 312.4913,-16 318.4913,-16 324.4913,-22 324.4913,-28 324.4913,-28 324.4913,-356 324.4913,-356 324.4913,-362 318.4913,-368 312.4913,-368 312.4913,-368 157.4913,-368 157.4913,-368 151.4913,-368 145.4913,-362 145.4913,-356 145.4913,-356 145.4913,-28 145.4913,-28 145.4913,-22 151.4913,-16 157.4913,-16"/>
<text text-anchor="middle" x="234.9913" y="-355.2" font-family="Times,serif" font-size="11.00" fill="#c0c0c0">PaladinsDev</text>
</g>
<g id="clust3" class="cluster">
<title>cluster_\PaladinsDev\PHP</title>
<path fill="none" stroke="#c0c0c0" d="M165.4913,-24C165.4913,-24 304.4913,-24 304.4913,-24 310.4913,-24 316.4913,-30 316.4913,-36 316.4913,-36 316.4913,-328 316.4913,-328 316.4913,-334 310.4913,-340 304.4913,-340 304.4913,-340 165.4913,-340 165.4913,-340 159.4913,-340 153.4913,-334 153.4913,-328 153.4913,-328 153.4913,-36 153.4913,-36 153.4913,-30 159.4913,-24 165.4913,-24"/>
<text text-anchor="middle" x="234.9913" y="-327.2" font-family="Times,serif" font-size="11.00" fill="#c0c0c0">PHP</text>
</g>
<g id="clust4" class="cluster">
<title>cluster_\PaladinsDev\PHP\Exceptions</title>
<path fill="none" stroke="#c0c0c0" d="M173.4913,-132C173.4913,-132 296.4913,-132 296.4913,-132 302.4913,-132 308.4913,-138 308.4913,-144 308.4913,-144 308.4913,-300 308.4913,-300 308.4913,-306 302.4913,-312 296.4913,-312 296.4913,-312 173.4913,-312 173.4913,-312 167.4913,-312 161.4913,-306 161.4913,-300 161.4913,-300 161.4913,-144 161.4913,-144 161.4913,-138 167.4913,-132 173.4913,-132"/>
<text text-anchor="middle" x="234.9913" y="-299.2" font-family="Times,serif" font-size="11.00" fill="#c0c0c0">Exceptions</text>
</g>
<!-- \\PaladinsDev\\PHP\\Exceptions\\PaladinsException -->
<g id="node1" class="node">
<title>\\PaladinsDev\\PHP\\Exceptions\\PaladinsException</title>
<polygon fill="none" stroke="#000000" points="300.4913,-284 169.4913,-284 169.4913,-248 300.4913,-248 300.4913,-284"/>
<text text-anchor="middle" x="234.9913" y="-263.2" font-family="Courier,monospace" font-size="11.00" fill="#000000">PaladinsException</text>
</g>
<!-- \\Exception -->
<g id="node6" class="node">
<title>\\Exception</title>
<ellipse fill="none" stroke="#000000" cx="48.7457" cy="-212" rx="48.9926" ry="18"/>
<text text-anchor="middle" x="48.7457" y="-208.3" font-family="Times,serif" font-size="14.00" fill="#c0c0c0">\Exception</text>
</g>
<!-- \\PaladinsDev\\PHP\\Exceptions\\PaladinsException&#45;&gt;\\Exception -->
<g id="edge1" class="edge">
<title>\\PaladinsDev\\PHP\\Exceptions\\PaladinsException&#45;&gt;\\Exception</title>
<path fill="none" stroke="#000000" d="M169.3697,-248.0716C158.7014,-245.0868 147.78,-241.9892 137.4913,-239 124.0585,-235.0973 109.5246,-230.7347 96.1831,-226.6735"/>
<polygon fill="none" stroke="#000000" points="96.8376,-223.2138 86.2513,-223.6393 94.7923,-229.9084 96.8376,-223.2138"/>
</g>
<!-- \\PaladinsDev\\PHP\\Exceptions\\SessionException -->
<g id="node2" class="node">
<title>\\PaladinsDev\\PHP\\Exceptions\\SessionException</title>
<polygon fill="none" stroke="#000000" points="297.4913,-230 172.4913,-230 172.4913,-194 297.4913,-194 297.4913,-230"/>
<text text-anchor="middle" x="234.9913" y="-209.2" font-family="Courier,monospace" font-size="11.00" fill="#000000">SessionException</text>
</g>
<!-- \\PaladinsDev\\PHP\\Exceptions\\SessionException&#45;&gt;\\Exception -->
<g id="edge2" class="edge">
<title>\\PaladinsDev\\PHP\\Exceptions\\SessionException&#45;&gt;\\Exception</title>
<path fill="none" stroke="#000000" d="M172.4561,-212C151.5731,-212 128.3813,-212 107.7739,-212"/>
<polygon fill="none" stroke="#000000" points="107.574,-208.5001 97.574,-212 107.574,-215.5001 107.574,-208.5001"/>
</g>
<!-- \\PaladinsDev\\PHP\\Exceptions\\NotFoundException -->
<g id="node3" class="node">
<title>\\PaladinsDev\\PHP\\Exceptions\\NotFoundException</title>
<polygon fill="none" stroke="#000000" points="300.4913,-176 169.4913,-176 169.4913,-140 300.4913,-140 300.4913,-176"/>
<text text-anchor="middle" x="234.9913" y="-155.2" font-family="Courier,monospace" font-size="11.00" fill="#000000">NotFoundException</text>
</g>
<!-- \\PaladinsDev\\PHP\\Exceptions\\NotFoundException&#45;&gt;\\Exception -->
<g id="edge3" class="edge">
<title>\\PaladinsDev\\PHP\\Exceptions\\NotFoundException&#45;&gt;\\Exception</title>
<path fill="none" stroke="#000000" d="M169.3697,-175.9284C158.7014,-178.9132 147.78,-182.0108 137.4913,-185 124.0585,-188.9027 109.5246,-193.2653 96.1831,-197.3265"/>
<polygon fill="none" stroke="#000000" points="94.7923,-194.0916 86.2513,-200.3607 96.8376,-200.7862 94.7923,-194.0916"/>
</g>
<!-- \\PaladinsDev\\PHP\\PaladinsAPI -->
<g id="node4" class="node">
<title>\\PaladinsDev\\PHP\\PaladinsAPI</title>
<polygon fill="none" stroke="#000000" points="280.4913,-122 189.4913,-122 189.4913,-86 280.4913,-86 280.4913,-122"/>
<text text-anchor="middle" x="234.9913" y="-101.2" font-family="Courier,monospace" font-size="11.00" fill="#000000">PaladinsAPI</text>
</g>
<!-- \\PaladinsDev\\PHP\\Arr -->
<g id="node5" class="node">
<title>\\PaladinsDev\\PHP\\Arr</title>
<polygon fill="none" stroke="#000000" points="261.9913,-68 207.9913,-68 207.9913,-32 261.9913,-32 261.9913,-68"/>
<text text-anchor="middle" x="234.9913" y="-47.2" font-family="Courier,monospace" font-size="11.00" fill="#000000">Arr</text>
</g>
</g>
</svg>
